<svg width="64" height="64" viewBox="0 0 64 64" fill="none" xmlns="http://www.w3.org/2000/svg">
<path d="M32 6C17.641 6 6 17.641 6 32C6 46.359 17.641 58 32 58C46.359 58 58 46.359 58 32C58 17.641 46.359 6 32 6ZM25 44H20V26H25V44ZM22.485 24H22.457C20.965 24 20 22.888 20 21.499C20 20.08 20.995 19 22.514 19C24.035 19 24.972 20.08 25 21.499C25 22.887 24.035 24 22.485 24ZM44 44H39V35C39 32 37.554 31 36 31C34.555 31 33 32 33 35V44H28V26H33V29C33.343 28.019 34.984 26 38 26C42 26 44 29 44 34V44Z" fill="white"/>
</svg>
