<svg width="37" height="40" viewBox="0 0 37 40" fill="none" xmlns="http://www.w3.org/2000/svg">
<path d="M30.244 4.872C30.7907 4.872 31.4193 4.98133 32.13 5.2C32.8953 5.364 33.5787 5.61 34.18 5.938C34.7813 6.21133 35.2733 6.512 35.656 6.84C36.0933 7.168 36.312 7.46867 36.312 7.742C35.2187 10.038 34.2073 12.3613 33.278 14.712C32.3487 17.008 31.556 19.222 30.9 21.354C30.244 23.486 29.7247 25.4813 29.342 27.34C29.014 29.1987 28.85 30.8113 28.85 32.178C28.85 33.7087 29.014 34.9933 29.342 36.032C29.67 37.016 30.2167 37.7267 30.982 38.164C30.326 38.6013 29.4787 38.9567 28.44 39.23C27.4013 39.5033 26.472 39.64 25.652 39.64C22.7 39.64 21.224 37.6173 21.224 33.572C21.224 30.456 22.2627 26.192 24.34 20.78C23.2467 23.2947 21.9893 25.6727 20.568 27.914C19.1467 30.1007 17.698 32.0413 16.222 33.736C14.746 35.4307 13.2427 36.8247 11.712 37.918C10.236 38.9567 8.86933 39.5853 7.612 39.804C5.58933 39.6947 3.94933 38.738 2.692 36.934C1.43467 35.0753 0.806 32.7247 0.806 29.882C0.806 26.8207 1.462 23.5953 2.774 20.206C4.086 16.8167 5.75333 13.6733 7.776 10.776C9.85333 7.87867 12.0947 5.47333 14.5 3.56C16.9053 1.592 19.2287 0.553331 21.47 0.443997C22.0167 0.607998 22.618 0.935999 23.274 1.428C23.9847 1.92 24.6407 2.494 25.242 3.15C25.898 3.806 26.4447 4.48933 26.882 5.2C27.3193 5.856 27.5653 6.43 27.62 6.922C25.4333 7.25 23.1647 8.316 20.814 10.12C18.518 11.924 16.4133 14.1107 14.5 16.68C12.6413 19.1947 11.1107 21.9007 9.908 24.798C8.70533 27.6953 8.104 30.4013 8.104 32.916C8.104 33.9547 8.48667 34.6107 9.252 34.884C10.8373 34.556 12.6687 33.2167 14.746 30.866C16.8233 28.4607 19.338 24.7707 22.29 19.796C22.8367 18.812 23.438 17.7187 24.094 16.516C24.8047 15.3133 25.5153 14.056 26.226 12.744C26.9367 11.432 27.62 10.12 28.276 8.808C28.9867 7.44133 29.6427 6.12933 30.244 4.872Z" fill="#092147"/>
</svg>
