<svg width="32" height="42" viewBox="0 0 32 42" fill="none" xmlns="http://www.w3.org/2000/svg">
<path d="M0.446001 24.568C0.446001 21.452 1.07467 18.4453 2.332 15.548C3.644 12.596 5.33867 9.99933 7.416 7.758C9.548 5.462 11.9533 3.63067 14.632 2.264C17.3653 0.842664 20.1807 0.131997 23.078 0.131997C25.9207 0.131997 28.1073 0.842664 29.638 2.264C31.1687 3.68533 31.934 5.708 31.934 8.332C31.934 9.58933 31.7427 10.8193 31.36 12.022C31.032 13.17 30.5673 14.2087 29.966 15.138C29.4193 16.0673 28.7633 16.8327 27.998 17.434C27.2327 17.9807 26.4673 18.254 25.702 18.254C25.046 18.254 24.3627 18.0627 23.652 17.68C22.996 17.2427 22.4493 16.696 22.012 16.04C25.6747 12.7053 27.506 9.67133 27.506 6.938C27.506 5.35266 26.8773 4.56 25.62 4.56C24.5267 4.56 23.16 5.07933 21.52 6.118C19.88 7.15666 18.2947 8.52333 16.764 10.218C14.4133 12.842 12.6093 15.7667 11.352 18.992C10.1493 22.1627 9.548 25.4973 9.548 28.996C9.548 33.424 10.532 36.0753 12.5 36.95C13.32 36.8407 14.2767 36.5947 15.37 36.212C16.4633 35.8293 17.6387 35.3373 18.896 34.736C20.1533 34.08 21.438 33.342 22.75 32.522C24.1167 31.702 25.4287 30.8273 26.686 29.898C26.9047 30.062 27.096 30.308 27.26 30.636C27.424 30.964 27.506 31.2647 27.506 31.538C26.5767 32.686 25.5107 33.8067 24.308 34.9C23.1053 35.9933 21.848 37.0047 20.536 37.934C19.224 38.8087 17.9393 39.5467 16.682 40.148C15.4793 40.804 14.4133 41.214 13.484 41.378C11.68 41.214 9.98533 40.64 8.4 39.656C6.81467 38.7267 5.42067 37.4967 4.218 35.966C3.07 34.4353 2.14067 32.686 1.43 30.718C0.774 28.75 0.446001 26.7 0.446001 24.568Z" fill="#BEBEC6"/>
</svg>
