<svg width="50" height="68" viewBox="0 0 50 68" fill="none" xmlns="http://www.w3.org/2000/svg">
<path d="M42.71 34.924C44.1313 34.924 45.252 35.416 46.072 36.4C46.892 37.384 47.302 38.7507 47.302 40.5C47.302 40.9373 47.2747 41.402 47.22 41.894C47.1653 42.3313 47.0833 42.714 46.974 43.042C45.826 42.7687 44.5687 42.6047 43.202 42.55C42.874 44.9553 41.9993 47.4973 40.578 50.176C39.1567 52.8 37.4347 55.2873 35.412 57.638C33.3893 59.934 31.1753 61.9567 28.77 63.706C26.3647 65.4553 23.9867 66.6307 21.636 67.232C14.3107 67.068 8.95333 65.1547 5.564 61.492C2.22933 57.884 0.562 52.226 0.562 44.518C0.562 38.8873 1.60067 33.448 3.678 28.2C5.75533 22.8973 8.516 18.196 11.96 14.096C15.404 9.996 19.34 6.716 23.768 4.256C28.2507 1.74133 32.8973 0.483997 37.708 0.483997C41.48 0.483997 44.4047 1.27666 46.482 2.862C48.614 4.44733 49.68 6.68867 49.68 9.586C49.68 11.4993 49.2153 13.276 48.286 14.916C47.4113 16.556 45.9353 18.3327 43.858 20.246C42.6007 19.8633 41.5073 19.2073 40.578 18.278C39.6487 17.294 39.0747 16.1733 38.856 14.916C40.7147 13.5493 42.0267 12.292 42.792 11.144C43.5573 9.996 43.94 8.62933 43.94 7.044C43.94 4.52933 42.4367 3.272 39.43 3.272C36.97 3.272 34.3187 4.20133 31.476 6.06C28.688 7.864 25.8727 10.488 23.03 13.932C18.9847 18.7973 16.0327 23.8267 14.174 29.02C12.3153 34.1587 11.386 39.9533 11.386 46.404C11.386 48.8093 11.632 50.996 12.124 52.964C12.616 54.932 13.272 56.654 14.092 58.13C14.912 59.606 15.8687 60.7813 16.962 61.656C18.11 62.5307 19.34 63.0227 20.652 63.132C22.4013 62.7493 24.1507 61.8747 25.9 60.508C27.6493 59.0867 29.2347 57.4467 30.656 55.588C32.132 53.6747 33.362 51.652 34.346 49.52C35.3847 47.3333 36.0133 45.256 36.232 43.288C34.7013 43.616 33.2253 43.944 31.804 44.272C30.4373 44.5453 29.1253 44.682 27.868 44.682C26.228 44.682 24.7793 44.272 23.522 43.452C22.3193 42.632 21.4993 41.5113 21.062 40.09C22.046 39.5433 23.4673 38.9693 25.326 38.368C27.2393 37.7667 29.262 37.22 31.394 36.728C33.526 36.1813 35.6033 35.744 37.626 35.416C39.7033 35.088 41.398 34.924 42.71 34.924Z" fill="#BEBEC6"/>
</svg>
