<svg width="44" height="73" viewBox="0 0 44 73" fill="none" xmlns="http://www.w3.org/2000/svg">
<path d="M0.872 67.606C0.872 65.6927 1.06333 63.4513 1.446 60.882C1.82867 58.258 2.37533 55.47 3.086 52.518C3.85133 49.566 4.726 46.4773 5.71 43.252C6.74867 40.0267 7.89667 36.8013 9.154 33.576C10.2473 30.6787 11.5047 27.754 12.926 24.802C14.402 21.85 15.9873 18.9527 17.682 16.11C19.3767 13.2673 21.126 10.5613 22.93 7.992C24.7887 5.42267 26.6473 3.072 28.506 0.939996C29.3807 0.939996 30.31 1.04933 31.294 1.268C32.3327 1.48666 33.3167 1.78733 34.246 2.17C35.23 2.498 36.1047 2.908 36.87 3.4C37.69 3.892 38.346 4.384 38.838 4.87599C34.738 9.08533 31.048 13.3493 27.768 17.668C24.488 21.932 21.8913 25.95 19.978 29.722C18.9393 31.7993 17.9827 33.74 17.108 35.544C16.288 37.348 15.5227 39.152 14.812 40.956C14.1013 42.7053 13.4453 44.482 12.844 46.286C12.2973 48.0353 11.778 49.894 11.286 51.862C21.782 38.4687 29.572 31.772 34.656 31.772C36.0773 31.772 37.608 32.2367 39.248 33.166C40.888 34.0953 42.3367 35.3527 43.594 36.938C41.8993 38.7967 40.15 41.038 38.346 43.662C36.542 46.286 34.8747 48.9373 33.344 51.616C31.868 54.24 30.638 56.7 29.654 58.996C28.7247 61.2373 28.26 62.9047 28.26 63.998C28.26 64.5447 28.342 64.9273 28.506 65.146C28.67 65.31 29.0253 65.392 29.572 65.392C30.392 65.392 31.048 65.2827 31.54 65.064C32.032 64.8453 32.3327 64.736 32.442 64.736C32.7153 65.1733 32.8793 65.474 32.934 65.638C32.9887 65.802 33.016 65.9387 33.016 66.048C33.016 66.2667 32.688 66.5947 32.032 67.032C31.376 67.4147 30.5833 67.8247 29.654 68.262C28.7793 68.6447 27.9047 69 27.03 69.328C26.1553 69.656 25.4993 69.82 25.062 69.82C24.5153 69.82 23.9687 69.656 23.422 69.328C22.8753 69.0547 22.3833 68.672 21.946 68.18C21.5633 67.688 21.2353 67.1413 20.962 66.54C20.7433 65.9387 20.634 65.31 20.634 64.654C20.634 63.834 20.8527 62.6313 21.29 61.046C21.782 59.406 22.438 57.52 23.258 55.388C24.078 53.2013 25.062 50.8233 26.21 48.254C27.358 45.6847 28.588 43.0607 29.9 40.382C29.9 40.1633 29.7907 40.054 29.572 40.054C29.408 40.054 28.9707 40.2727 28.26 40.71C27.604 41.1473 26.9753 41.5847 26.374 42.022C24.406 43.498 22.4107 45.3293 20.388 47.516C18.42 49.648 16.4793 51.9987 14.566 54.568C12.7073 57.1373 10.9307 59.8707 9.236 62.768C7.596 65.6107 6.17467 68.4807 4.972 71.378C4.808 71.7607 4.562 72.116 4.234 72.444C3.906 72.772 3.63267 72.936 3.414 72.936C3.25 72.936 3.004 72.7447 2.676 72.362C2.40267 71.9793 2.12933 71.4873 1.856 70.886C1.63733 70.3393 1.41867 69.7653 1.2 69.164C0.981333 68.5627 0.872 68.0433 0.872 67.606Z" fill="#85C1BD"/>
</svg>
