<svg width="28" height="59" viewBox="0 0 28 59" fill="none" xmlns="http://www.w3.org/2000/svg">
<path d="M0.0360004 51.506C0.0360004 51.014 0.0633338 50.4127 0.118001 49.702C0.227334 48.9367 0.391334 47.9527 0.61 46.75C0.828667 45.4927 1.102 43.9893 1.43 42.24C1.81267 40.4907 2.27733 38.386 2.824 35.926C2.93333 35.3793 3.17933 34.5047 3.562 33.302C3.94467 32.0993 4.43667 30.842 5.038 29.53C5.694 28.1633 6.45933 26.8513 7.334 25.594C8.26333 24.3367 9.35667 23.4073 10.614 22.806C11.5433 23.0247 12.7733 23.5987 14.304 24.528C15.8347 25.4027 17.1467 26.6327 18.24 28.218C16.9827 29.6393 15.9167 31.0607 15.042 32.482C14.222 33.9033 13.4567 35.3793 12.746 36.91C12.09 38.4407 11.4613 40.026 10.86 41.666C10.3133 43.306 9.68467 45.028 8.974 46.832C8.37267 48.3627 7.826 49.948 7.334 51.588C6.842 53.1733 6.56867 54.5673 6.514 55.77C6.514 56.754 6.48667 57.4373 6.432 57.82C6.432 58.2573 6.29533 58.476 6.022 58.476C5.80333 58.476 5.366 58.3393 4.71 58.066C4.054 57.7927 3.37067 57.3827 2.66 56.836C2.004 56.2347 1.40267 55.4967 0.856 54.622C0.309334 53.7473 0.0360004 52.7087 0.0360004 51.506ZM15.698 15.918C15.698 15.59 15.78 15.098 15.944 14.442C15.6707 14.1687 15.4247 13.7587 15.206 13.212C15.042 12.6653 14.96 12.1733 14.96 11.736C14.96 11.244 15.0147 10.588 15.124 9.768C15.288 8.89333 15.4793 7.964 15.698 6.98C15.9167 5.996 16.19 4.98467 16.518 3.946C16.846 2.85266 17.174 1.86866 17.502 0.993998C18.158 0.993998 18.9507 1.18533 19.88 1.568C20.864 1.896 21.848 2.36066 22.832 2.962C23.816 3.50866 24.718 4.13733 25.538 4.848C26.358 5.504 26.9867 6.13266 27.424 6.734C26.8227 7.33533 26.03 8.18266 25.046 9.276C24.062 10.3147 23.1053 11.4353 22.176 12.638C21.2467 13.786 20.3993 14.8793 19.634 15.918C18.8687 16.9567 18.3767 17.6947 18.158 18.132C17.502 18.0227 16.928 17.7493 16.436 17.312C15.944 16.82 15.698 16.3553 15.698 15.918Z" fill="#85C1BD"/>
</svg>
