<svg width="46" height="76" viewBox="0 0 46 76" fill="none" xmlns="http://www.w3.org/2000/svg">
<path d="M1.968 72.142C1.20267 71.9233 0.765333 71.1033 0.656 69.682C0.437333 68.9713 0.273333 68.124 0.164 67.14C0.109333 66.156 0.082 65.0353 0.082 63.778C0.082 62.63 0.273333 61.0447 0.656 59.022C1.03867 57.054 1.558 54.8127 2.214 52.298C2.92467 49.7833 3.772 47.0773 4.756 44.18C5.74 41.228 6.83333 38.2487 8.036 35.242C9.512 31.47 10.7967 28.2173 11.89 25.484C12.9833 22.696 13.8853 20.2907 14.596 18.268C15.3613 16.2453 15.9627 14.578 16.4 13.266C16.892 11.954 17.2747 10.8333 17.548 9.904C17.7667 9.248 18.0947 8.45533 18.532 7.526C18.9693 6.59666 19.4613 5.66733 20.008 4.738C20.6093 3.754 21.2107 2.852 21.812 2.032C22.4133 1.15733 22.96 0.501331 23.452 0.0639969C25.3653 0.33733 27.1693 0.82933 28.864 1.54C30.5587 2.25066 31.5973 2.934 31.98 3.59C31.2147 4.30067 30.34 5.42133 29.356 6.952C28.372 8.428 27.4153 10.068 26.486 11.872C25.5567 13.6213 24.7093 15.4253 23.944 17.284C23.1787 19.1427 22.6047 20.7827 22.222 22.204C22.7687 21.2747 23.4793 20.2633 24.354 19.17C25.2287 18.0767 26.568 16.5733 28.372 14.66C30.3947 12.5827 32.2807 10.9973 34.03 9.904C35.834 8.756 37.392 8.182 38.704 8.182C40.7813 8.182 42.476 8.756 43.788 9.904C45.1547 11.052 45.838 12.528 45.838 14.332C45.838 18.268 45.182 22.1767 43.87 26.058C42.558 29.8847 40.672 33.356 38.212 36.472C37.2827 37.6747 36.1893 38.8227 34.932 39.916C33.6747 41.0093 32.3627 41.9933 30.996 42.868C29.6293 43.688 28.29 44.344 26.978 44.836C25.666 45.328 24.4907 45.574 23.452 45.574C22.468 45.574 21.5933 45.3827 20.828 45C20.1173 44.5627 19.6253 44.0433 19.352 43.442C21.484 42.1847 23.5613 40.4353 25.584 38.194C27.6067 35.9527 29.4653 33.3833 31.16 30.486C32.9093 27.534 34.4127 24.3633 35.67 20.974C36.982 17.5847 37.966 14.1407 38.622 10.642C36.5447 11.7353 34.6587 12.938 32.964 14.25C31.324 15.5073 29.684 17.1747 28.044 19.252C26.076 21.6573 24.518 23.598 23.37 25.074C22.222 26.55 21.2653 27.8073 20.5 28.846C19.7893 29.8847 19.188 30.8687 18.696 31.798C18.2587 32.6727 17.7667 33.766 17.22 35.078C16.4547 36.8273 15.5527 39.1507 14.514 42.048C13.53 44.8907 12.4913 48.0887 11.398 51.642C10.3593 55.1953 9.29333 58.9673 8.2 62.958C7.16133 67.0033 6.15 71.0213 5.166 75.012C4.56467 74.9027 4.04533 74.4653 3.608 73.7C3.17067 73.208 2.84267 72.8527 2.624 72.634C2.46 72.4153 2.24133 72.2513 1.968 72.142Z" fill="#092147"/>
</svg>
