<svg width="36" height="43" viewBox="0 0 36 43" fill="none" xmlns="http://www.w3.org/2000/svg">
<path d="M0.986001 38.36C1.25933 36.7747 1.724 34.6973 2.38 32.128C3.09067 29.504 3.91067 26.7433 4.84 23.846C5.76933 20.894 6.75333 17.942 7.792 14.99C8.83067 12.038 9.842 9.38666 10.826 7.036C11.5367 5.34133 12.1653 4.02933 12.712 3.1C13.2587 2.116 13.86 1.296 14.516 0.639998C15.2813 0.749332 16.074 0.940665 16.894 1.214C17.714 1.48733 18.5067 1.81533 19.272 2.198C20.0373 2.58066 20.7207 2.99066 21.322 3.428C21.9233 3.81067 22.388 4.19333 22.716 4.576C21.24 6.32533 19.928 8.32067 18.78 10.562C17.6867 12.8033 16.566 15.6733 15.418 19.172C18.37 16.548 20.9667 14.0333 23.208 11.628C25.504 9.22267 27.636 6.544 29.604 3.592C29.932 3.31866 30.506 3.182 31.326 3.182C32.0913 3.182 32.8293 3.31866 33.54 3.592C34.2507 3.81066 34.7427 4.13866 35.016 4.576C34.032 7.2 33.54 9.79667 33.54 12.366C33.54 14.7713 33.8953 16.5753 34.606 17.778C34.5513 18.106 34.1687 18.7347 33.458 19.664C32.802 20.5933 32.064 21.468 31.244 22.288C29.768 21.5227 28.456 20.484 27.308 19.172C26.16 17.8053 25.3127 16.3293 24.766 14.744C22.1967 16.548 20.01 18.3247 18.206 20.074C16.402 21.7687 14.844 23.682 13.532 25.814C12.2747 27.8913 11.1813 30.2967 10.252 33.03C9.37733 35.7633 8.53 39.016 7.71 42.788C7.218 42.7333 6.61667 42.542 5.906 42.214C5.25 41.9407 4.56667 41.5853 3.856 41.148C3.2 40.7107 2.59867 40.246 2.052 39.754C1.50533 39.262 1.15 38.7973 0.986001 38.36Z" fill="#092147"/>
</svg>
